<svg xmlns="http://www.w3.org/2000/svg" width="55.568" height="82.735" viewBox="0 0 55.568 82.735">
  <g id="idea" transform="translate(-0.488 0)">
    <g id="Group_1307" data-name="Group 1307" transform="translate(2.507 2.015)">
      <path id="Path_692" data-name="Path 692" d="M76.859,29.011V23a11.034,11.034,0,0,1,9.333-10.89A11.02,11.02,0,0,0,73.5,23v6.014a11.02,11.02,0,0,0,12.7,10.89,11.035,11.035,0,0,1-9.333-10.89Zm0,0" transform="translate(-63.238 -11.979)" fill="#fff" opacity="0.14"/>
      <path id="Path_693" data-name="Path 693" d="M151.639,222.628a12.544,12.544,0,0,0,9.6-4.057,12.454,12.454,0,0,0-2.829-.618c-.01.012-.02.026-.032.04a12.55,12.55,0,0,1-8.1,4.528A12.864,12.864,0,0,0,151.639,222.628Zm0,0" transform="translate(-127.11 -183.315)" fill="#fff" opacity="0.14"/>
      <path id="Path_694" data-name="Path 694" d="M19.39,221.49a12.47,12.47,0,0,1,5.213-3.208q-.235-.262-.458-.539a12.468,12.468,0,0,0-11.65,12.5v18.485h3.363V230.24a12.422,12.422,0,0,1,3.532-8.751Zm0,0" transform="translate(-12.495 -183.139)" fill="#fff" opacity="0.14"/>
    </g>
    <path id="Path_695" data-name="Path 695" d="M87.562,19.047V13.033a13.033,13.033,0,1,0-26.066,0v6.014a13.033,13.033,0,1,0,26.066,0Zm-24.048,0V13.033a11.015,11.015,0,1,1,22.03,0v6.014a11.015,11.015,0,1,1-22.03,0Zm0,0" transform="translate(-50.749 0)" fill="#fff"/>
    <path id="Path_696" data-name="Path 696" d="M33.447,205.634c-.543-.037-.789.268-1.236.814a10.622,10.622,0,0,1-16.764-.406l-.016-.022a1.013,1.013,0,0,0-.836-.408A14.486,14.486,0,0,0,.489,220.15V239.7a.909.909,0,0,0,.94.956H35.96a1.009,1.009,0,1,0,0-2.018H2.507V220.15a12.469,12.469,0,0,1,11.65-12.5,12.626,12.626,0,0,0,19.619.076c.012-.014.021-.028.032-.04a12.456,12.456,0,0,1,9.013,5.289,1.009,1.009,0,1,0,1.653-1.157,14.47,14.47,0,0,0-11.026-6.185Zm0,0" transform="translate(0 -171.034)" fill="#fff"/>
    <path id="Path_697" data-name="Path 697" d="M188.221,243.8a13.925,13.925,0,0,0-9.678-4.023h-.131a14.021,14.021,0,0,0-9.5,24.311,8.141,8.141,0,0,1,2.578,6.015v6.484a3.133,3.133,0,0,0,3.076,3.08h2.81v1.514a1.009,1.009,0,0,0,2.018,0v-1.514h2.866a3.084,3.084,0,0,0,3.02-3.08V270.09a8.348,8.348,0,0,1,2.681-6.074,13.985,13.985,0,0,0,.26-20.22Zm-5.961,33.85h-7.694a1.142,1.142,0,0,1-.977-.841H178.8a1.009,1.009,0,0,0,0-2.018h-5.294v-.841h1.357a1.009,1.009,0,1,0,0-2.018h-1.357v-.841h9.754v.841h-4.755a1.009,1.009,0,1,0,0,2.018h4.755v.841H182.13a1.009,1.009,0,1,0,0,2.018h1.108A1.14,1.14,0,0,1,182.261,277.646Zm-4.432-27.838a.887.887,0,1,1-.262.63A.89.89,0,0,1,177.828,249.808Zm9.78,11.646a12.134,12.134,0,0,1-1.029,1.075,10.279,10.279,0,0,0-3.277,6.541h-1.385v-5.893a.926.926,0,0,1,.925-.925,2.947,2.947,0,0,0,2.943-2.943v-.072a3.307,3.307,0,0,0,1.043-.667,2.9,2.9,0,1,0-4.117-4.075,2.957,2.957,0,0,0,0,4.15h0c.307.168.716.452,1.052.593v.072a.925.925,0,0,1-.925.925,2.947,2.947,0,0,0-2.943,2.943v5.893h-.5V253.162a2.246,2.246,0,0,0,1.083-.668,2.9,2.9,0,1,0-4.115,0,3.21,3.21,0,0,0,1.012.668v15.907h-.336v-5.893a2.946,2.946,0,0,0-2.943-2.943.926.926,0,0,1-.925-.925v-.072a3.3,3.3,0,0,0,1.041-.667,2.909,2.909,0,1,0-4.112,0,3.356,3.356,0,0,0,1.053.667v.072a2.947,2.947,0,0,0,2.943,2.943.925.925,0,0,1,.925.925v5.894h-1.5a10.062,10.062,0,0,0-3.215-6.482,11.976,11.976,0,0,1,8.1-20.8h.113a11.982,11.982,0,0,1,9.082,19.663Zm-3.733-4.943a.89.89,0,1,1,.26.629A.89.89,0,0,1,183.875,256.511Zm-12.355-.629a.885.885,0,1,1-.263.629A.89.89,0,0,1,171.52,255.882Zm0,0" transform="translate(-136.359 -199.451)" fill="#fff"/>
  </g>
</svg>
