<svg
	xmlns="http://www.w3.org/2000/svg" style="display: none;">
	<symbol id="problem-solving" viewBox="0 0 64 64">
		<title>problem-solving</title>
		<g>
			<g>
				<path d="m44.95 44.19 1.05 2.81h-1l-.3-.4c-1.7-2.27-4.37-3.6-7.2-3.6h-6.5v-4h6.46c3.33 0 6.32 2.07 7.49 5.19z" fill="#ffeaa7"/>
			</g>
			<g>
				<path d="m31 47c-.28 0-.52.11-.71.29l-.17-.17c.54-.54.88-1.29.88-2.12v-2h6.5c2.83 0 5.5 1.33 7.2 3.6l.3.4z" fill="#e6e9ed"/>
			</g>
			<g>
				<path d="m61 43v4h-14l.3-.4c1.7-2.27 4.37-3.6 7.2-3.6z" fill="#e6e9ed"/>
			</g>
			<g>
				<path d="m54.5 43c-2.83 0-5.5 1.33-7.2 3.6l-.3.4h-1l1.05-2.81c1.17-3.12 4.16-5.19 7.49-5.19h6.46v4z" fill="#ffeaa7"/>
			</g>
			<g>
				<path d="m47 47h14c.55 0 1 .45 1 1v2c0 .55-.45 1-1 1h-12c0 1.66-1.34 3-3 3s-3-1.34-3-3h-12c-.55 0-1-.45-1-1v-2c0-.28.11-.52.29-.71.19-.18.43-.29.71-.29h14 1z" fill="#fcd770"/>
			</g>
			<g>
				<path d="m26.02 49.22c.21 6.57 1.98 12.78 1.98 12.78h-22s1.64-5.73 1.95-12h16.05c.78 0 1.49-.3 2.02-.78z" fill="#ff826e"/>
			</g>
			<g>
				<path d="m17.94 31.89 2.06 4.11s4.7-1.87 5-7.43v15.6.01c-.31-.12-.65-.18-1-.18h-16v-2h-6v-5.63c0-1.35.36-2.66 1-3.8s1.58-2.12 2.74-2.82c.4-.24.82-.44 1.25-.6.47-.18.96-.31 1.45-.39l.56-.09c.35 5.48 5 7.33 5 7.33l2.06-4.11c.3.07.61.11.94.11z" fill="#ff826e"/>
			</g>
			<g>
				<path d="m13 28c0 1.88 1.3 3.46 3.06 3.89l-2.06 4.11s-4.65-1.85-5-7.33z" fill="#fc6e51"/>
			</g>
			<g>
				<path d="m21 28 4 .57c-.3 5.56-5 7.43-5 7.43l-2.06-4.11c1.72-.9 1.81-.98 1.89-1.06.72-.73 1.17-1.73 1.17-2.83z" fill="#fc6e51"/>
			</g>
			<g>
				<path d="m8.44 28.76c-.49.08-.98.21-1.45.39v-.01l-.66-8.15c-.22-2.66-.33-5.32-.33-7.99 0-3.04 1.23-5.79 3.22-7.78s4.74-3.22 7.78-3.22 5.79 1.23 7.78 3.22 3.22 4.74 3.22 7.78c0 2.67-.11 5.33-.33 7.99l-.09 1.04c-1.46.2-2.58 1.45-2.58 2.97v3.57l-4-.57-.93-3.71c2.33-1.13 3.93-3.52 3.93-6.29v-5c-2.5 0-5.25-1-7.38-2-2.12-1-3.62-2-3.62-2-1.87 1.25-3 3.35-3 5.61v3.39c0 2.77 1.6 5.16 3.93 6.29l-.93 3.71-4 .67z" fill="#656d78"/>
			</g>
			<g>
				<path d="m60 27h-11l-4.59 5.51c-.26.31-.64.49-1.05.49-.75 0-1.36-.61-1.36-1.36v-4.64h-11v-2c0-.83-.34-1.58-.88-2.12s-1.29-.88-2.12-.88c-.14 0-.28.01-.42.03l.09-1.04c.22-2.66.33-5.32.33-7.99v-5c0-1.1.9-2 2-2h30c1.1 0 2 .9 2 2v17c0 1.1-.9 2-2 2z" fill="#e6e9ed"/>
			</g>
			<g>
				<path d="m26.89 47.79c-.15.56-.45 1.05-.87 1.43-.53.48-1.24.78-2.02.78h-16.05-.95c-2.76 0-5-2.24-5-5v-3h6v2h16c.35 0 .69.06 1 .18.43.14.81.39 1.12.7.54.54.88 1.29.88 2.12 0 .27-.04.54-.11.79z" fill="#f0d0b4"/>
			</g>
			<g>
				<path d="m31 43v2c0 .83-.34 1.58-.88 2.12s-1.29.88-2.12.88c-.39 0-.76-.07-1.11-.21.07-.25.11-.52.11-.79 0-.83-.34-1.58-.88-2.12-.31-.31-.69-.56-1.12-.7v-.01-15.6-3.57c0-1.52 1.12-2.77 2.58-2.97.14-.02.28-.03.42-.03.83 0 1.58.34 2.12.88s.88 1.29.88 2.12v2 12z" fill="#f0d0b4"/>
			</g>
			<g>
				<path d="m19.83 30.83c-.08.08-.17.16-1.89 1.06l-.94.11c-.33 0-.64-.04-.94-.11-1.76-.43-3.06-2.01-3.06-3.89l.93-3.71c.92.46 1.96.71 3.07.71s2.15-.25 3.07-.71l.93 3.71c0 1.1-.45 2.1-1.17 2.83z" fill="#f0d0b4"/>
			</g>
			<g>
				<path d="m24 13v5c0 2.77-1.6 5.16-3.93 6.29-.92.46-1.96.71-3.07.71s-2.15-.25-3.07-.71c-2.33-1.13-3.93-3.52-3.93-6.29v-3.39c0-2.26 1.13-4.36 3-5.61 0 0 1.5 1 3.62 2 2.13 1 4.88 2 7.38 2z" fill="#f0d0b4"/>
			</g>
		</g>
		<g>
			<circle cx="20" cy="16" r="1"/>
			<circle cx="14" cy="16" r="1"/>
			<path d="m17 18c-1.615 0-3.067.897-3.789 2.342l-.105.211 1.789.895.105-.212c.381-.762 1.147-1.236 2-1.236s1.619.474 2 1.236l.105.211 1.789-.895-.105-.211c-.722-1.444-2.174-2.341-3.789-2.341z"/>
			<path d="m35 9c-2.206 0-4 1.794-4 4h2c0-1.103.897-2 2-2s2 .897 2 2-.897 2-2 2h-1v5h2v-3.127c1.723-.444 3-2.013 3-3.873 0-2.206-1.794-4-4-4z"/>
			<path d="m34 22h2v2h-2z"/>
			<path d="m45 11c1.103 0 2 .897 2 2s-.897 2-2 2h-1v5h2v-3.127c1.723-.444 3-2.013 3-3.873 0-2.206-1.794-4-4-4s-4 1.794-4 4h2c0-1.103.897-2 2-2z"/>
			<path d="m44 22h2v2h-2z"/>
			<path d="m55 11c1.103 0 2 .897 2 2s-.897 2-2 2h-1v5h2v-3.127c1.723-.444 3-2.013 3-3.873 0-2.206-1.794-4-4-4s-4 1.794-4 4h2c0-1.103.897-2 2-2z"/>
			<path d="m54 22h2v2h-2z"/>
			<path d="m43.362 34c.703 0 1.364-.31 1.814-.85l4.292-5.15h10.532c1.654 0 3-1.346 3-3v-17c0-1.654-1.346-3-3-3h-30c-1.227 0-2.281.742-2.745 1.8-2.106-3.47-5.909-5.8-10.255-5.8-6.617 0-12 5.383-12 12 0 2.681.113 5.396.335 8.067l.604 7.446c-.241.116-.478.243-.71.382-2.608 1.567-4.229 4.429-4.229 7.471v8.634c0 3.27 2.63 5.932 5.885 5.994-.417 5.665-1.831 10.678-1.846 10.731l-.364 1.275h24.651l-.364-1.274c-.017-.06-1.67-5.922-1.925-12.152.164-.193.308-.401.434-.623.175.023.35.049.529.049.347 0 .678-.058 1-.142v1.142c0 1.103.897 2 2 2h11.126c.445 1.724 2.013 3 3.874 3s3.428-1.276 3.874-3h11.126c1.103 0 2-.897 2-2v-2c0-1.103-.897-2-2-2h-11.774c1.448-1.267 3.324-2 5.274-2h6.5v-2h-6.5c-2.354 0-4.629.847-6.412 2.332 1.075-2.596 3.632-4.332 6.456-4.332h6.456v-2h-6.456c-3.731 0-7.117 2.347-8.427 5.84l-.117.311-.117-.311c-1.31-3.493-4.696-5.84-8.427-5.84h-5.456v-10h9v3.638c0 1.302 1.06 2.362 2.362 2.362zm-36.033-13.097c-.219-2.618-.329-5.277-.329-7.903 0-5.514 4.486-10 10-10s10 4.486 10 10c0 2.626-.11 5.285-.329 7.903l-.029.35c-1.536.559-2.642 2.02-2.642 3.747v2.418l-2.193-.313-.581-2.325c2.262-1.415 3.774-3.921 3.774-6.78v-6h-1c-4.633 0-10.388-3.794-10.446-3.832l-.554-.369-.554.369c-2.158 1.437-3.446 3.845-3.446 6.437v3.395c0 2.859 1.512 5.365 3.774 6.78l-.585 2.341-3.909.651c-.131.022-.258.056-.387.083zm9.671 3.097c-3.309 0-6-2.691-6-6v-3.395c0-1.71.755-3.31 2.046-4.393 1.563.955 5.875 3.379 9.954 3.741v4.047c0 3.309-2.691 6-6 6zm-4.852 5.156c.338 1.414 1.277 2.582 2.532 3.247l-1.119 2.237c-1.096-.685-2.946-2.262-3.442-5.146zm1.861-1.068.612-2.449c.752.234 1.551.361 2.379.361s1.627-.127 2.379-.361l.612 2.449c-.048 1.613-1.367 2.912-2.991 2.912s-2.943-1.299-2.991-2.912zm7.85 1.045 2.027.29c-.478 2.929-2.346 4.527-3.448 5.217l-1.119-2.237c1.262-.669 2.207-1.846 2.54-3.27zm-15.601 1.478c.587-.352 1.217-.605 1.875-.764.883 5.186 5.297 7.002 5.497 7.082l.854.339 2.153-4.305c.122.009.239.037.363.037s.241-.028.364-.037l2.153 4.305.854-.34c.131-.052 2.062-.855 3.63-2.85v8.922h-15.001v-6h-2v4h-4v-4.634c0-2.344 1.249-4.549 3.258-5.755zm-3.258 14.389v-2h4v2h17c1.103 0 2 .897 2 2s-.897 2-2 2h-17c-2.206 0-4-1.794-4-4zm4.294 16c.469-1.913 1.291-5.754 1.589-10h15.117c.384 0 .748-.072 1.099-.173.286 4.314 1.131 8.232 1.607 10.173zm18.706-17.444v-18.556c0-1.103.897-2 2-2s2 .897 2 2v20c0 1.103-.897 2-2 2 0-1.474-.81-2.75-2-3.444zm6 1.444v-1h5.5c1.95 0 3.827.733 5.274 2h-10.916c.084-.322.142-.653.142-1zm29 5h-13v1c0 1.103-.897 2-2 2s-2-.897-2-2v-1h-13v-2l30-.001zm-23.544-10c2.823 0 5.38 1.735 6.455 4.331-1.782-1.485-4.057-2.331-6.411-2.331h-5.5v-2zm-5.456-14v-1c0-1.978-1.447-3.614-3.335-3.933.222-2.672.335-5.387.335-8.067v-5c0-.552.449-1 1-1h30c.551 0 1 .448 1 1v17c0 .552-.449 1-1 1h-11.468l-4.892 5.869c-.198.236-.64.077-.64-.231v-5.638z"/>
		</g>
	</symbol>
	<symbol id="contract" viewBox="0 0 512 512">
		<title>contract</title>
		<g>
			<path d="m463.169 235.424c-.733 0-1.478-.106-2.217-.326-4.087-1.222-6.411-5.528-5.188-9.616l31.394-104.994-25.703-7.667c-4.089-1.22-6.415-5.524-5.195-9.613s5.526-6.411 9.611-5.196l33.112 9.877c1.965.587 3.615 1.93 4.589 3.733.974 1.804 1.191 3.921.604 5.884l-33.609 112.401c-1.001 3.352-4.073 5.517-7.398 5.517z" fill="#595959"/>
		</g>
		<g>
			<path clip-rule="evenodd" d="m7.5 48.485v456.589c0 3.799 3.101 6.926 6.903 6.926h110.158 235.76 46.801c3.803 0 6.932-3.127 6.932-6.926 0-237.281 0-160.623 0-419.122l-.029-4.296c0-.614-.088-1.081-.293-1.52h-56.044c-15.269 0-27.788-12.508-27.788-27.793l.059-51.992c-.556-.263-1.083-.351-1.814-.351h-5.177-308.565c-3.802 0-6.903 3.098-6.903 6.897z" fill="#f9f7f7" fill-rule="evenodd"/>
		</g>
		<g>
			<path clip-rule="evenodd" d="m253.497 0c53.119 54.681 87.693 143.847 87.693 244.558 0 21.831-1.638 43.107-4.709 63.594-.995 6.576-2.135 13.093-3.422 19.493-1.55 7.745-3.305 15.343-5.265 22.796-18.369 69.879-54.377 127.453-100.271 161.559h132.798 46.801c3.803 0 6.932-3.127 6.932-6.926v-77.418-102.523-239.181l-.029-4.296c0-.614-.088-1.081-.293-1.52l-83.774-79.785c-.555-.263-1.082-.351-1.813-.351h-5.177z" fill="#e2e2e2" fill-rule="evenodd"/>
		</g>
		<g>
			<path clip-rule="evenodd" d="m329.958.351-.058 51.992c0 15.285 12.519 27.793 27.788 27.793h56.044c-.468-.935-1.521-1.754-3.627-3.77l-75.7-72.128c-2.341-2.251-3.394-3.361-4.447-3.887z" fill="#cecece" fill-rule="evenodd"/>
		</g>
		<g>
			<path d="m272.225 463.619c-7.27 0-13.166-4.861-18.005-9.678-2.177-2.161-3.225-2.351-3.236-2.352-.749.14-2.935 2.042-4.24 3.178-5.346 4.653-16.469 14.333-32.282-.169-3.144-2.884-3.356-7.772-.473-10.917 2.883-3.147 7.769-3.358 10.915-.474 2.699 2.476 5.073 3.803 6.375 3.582 1.378-.248 3.473-2.071 5.322-3.681 4.953-4.308 15.258-13.278 28.508-.13 5.064 5.039 6.86 5.211 7.172 5.185.39-.023 1.602-.672 3.398-2.957 2.431-3.085 4.175-6.183 5.86-9.179 3.25-5.775 6.61-11.746 13.755-13.125 8.505-1.598 12.948 5.647 16.191 10.938 4.656 7.596 7.933 12.199 16.267 11.271 4.237-.491 8.062 2.578 8.537 6.819.474 4.24-2.579 8.063-6.819 8.537-18.515 2.07-26.739-11.344-31.157-18.549-.368-.601-.786-1.283-1.2-1.933-.702 1.12-1.468 2.482-2.109 3.621-1.79 3.181-4.018 7.14-7.185 11.16-4.347 5.527-9.261 8.498-14.602 8.822-.332.021-.663.031-.992.031z" fill="#595959"/>
		</g>
		<g>
			<path clip-rule="evenodd" d="m424.321 59.181 15.286 20.955 24.758-9.001 10.238-34.223c3.276-11.018-3.042-22.708-14.04-25.981-11.027-3.302-22.728 3.01-26.004 14.028z" fill="#838383" fill-rule="evenodd"/>
		</g>
		<g>
			<path clip-rule="evenodd" d="m323.874 415.556 4.007 35.392c.41 2.309.38 2.426 2.048.614l22.757-27.413 24.512-29.518-23.02-27.94-34.574 10.755z" fill="#838383" fill-rule="evenodd"/>
		</g>
		<g>
			<path clip-rule="evenodd" d="m412.913 65.319-93.309 312.127 28.783 8.592 28.812 8.592 86.465-289.215 6.845-22.883c1.463-4.822-1.316-9.966-6.143-11.398l-40.044-11.953c-4.828-1.432-9.976 1.316-11.409 6.138z" fill="#fe9737" fill-rule="evenodd"/>
		</g>
		<g>
			<path clip-rule="evenodd" d="m454.566 30.92-10.238 34.223 20.037 5.991 10.238-34.223c3.276-11.018-3.042-22.708-14.04-25.981-3.656-1.081-7.371-1.14-10.823-.292 4.943 5.261 7.02 12.918 4.826 20.282z" fill="#595959" fill-rule="evenodd"/>
		</g>
		<g>
			<path clip-rule="evenodd" d="m443.655 99.454-82.457 275.771-4.007 13.444 20.007 5.962 86.465-289.215 6.845-22.883c1.463-4.822-1.316-9.966-6.143-11.398l-20.037-5.991c4.826 1.461 7.605 6.576 6.172 11.398z" fill="#f36b37" fill-rule="evenodd"/>
		</g>
		<g>
			<path clip-rule="evenodd" d="m357.191 388.669-24.512 29.518-7.488 9.001 2.691 23.76c.41 2.309.38 2.426 2.048.614l22.757-27.413 24.512-29.518z" fill="#595959" fill-rule="evenodd"/>
		</g>
		<g>
			<path d="m315.041 208.563h-209.757c-4.267 0-7.725-3.459-7.725-7.726s3.459-7.726 7.725-7.726h209.756c4.267 0 7.725 3.459 7.725 7.726s-3.458 7.726-7.724 7.726z" fill="#595959"/>
		</g>
		<g>
			<path d="m302.258 268.622h-196.974c-4.267 0-7.725-3.459-7.725-7.726 0-4.268 3.459-7.726 7.725-7.726h196.974c4.267 0 7.725 3.459 7.725 7.726.001 4.267-3.458 7.726-7.725 7.726z" fill="#595959"/>
		</g>
		<g>
			<path d="m287.019 328.68h-181.735c-4.267 0-7.725-3.459-7.725-7.726 0-4.268 3.459-7.726 7.725-7.726h181.734c4.267 0 7.725 3.459 7.725 7.726.001 4.267-3.458 7.726-7.724 7.726z" fill="#595959"/>
		</g>
		<g>
			<path d="m229.746 388.738h-124.462c-4.267 0-7.725-3.459-7.725-7.726 0-4.268 3.459-7.726 7.725-7.726h124.461c4.267 0 7.725 3.459 7.725 7.726.001 4.268-3.458 7.726-7.724 7.726z" fill="#595959"/>
		</g>
		<g>
			<path clip-rule="evenodd" d="m290.47 99.776h-170.004c-2.896 0-5.265 2.367-5.265 5.261v31.154c0 2.893 2.369 5.261 5.265 5.261h170.004c2.896 0 5.265-2.367 5.265-5.261v-31.154c0-2.894-2.369-5.261-5.265-5.261z" fill="#97da7b" fill-rule="evenodd"/>
		</g>
		<g>
			<path clip-rule="evenodd" d="m290.47 99.776h-48.263c2.896 0 5.265 2.367 5.265 5.261v31.154c0 2.893-2.369 5.261-5.265 5.261h48.263c2.896 0 5.265-2.367 5.265-5.261v-31.154c0-2.894-2.369-5.261-5.265-5.261z" fill="#68ca44" fill-rule="evenodd"/>
		</g>
	</symbol>
	<symbol id="data-scientist" viewBox="0 0 64 64">
		<title>data-scientist</title>
		<g>
			<g>
				<path d="m32 32h14c0 1.59-.27 3.12-.76 4.54-1.39 4.08-4.62 7.31-8.7 8.7-1.42.49-2.95.76-4.54.76-3.86 0-7.36-1.57-9.9-4.1z" fill="#fcd770"/>
			</g>
			<g>
				<path d="m27.46 18.76c1.42-.49 2.95-.76 4.54-.76 7.73 0 14 6.27 14 14h-14l-9.9-9.9c1.49-1.49 3.32-2.65 5.36-3.34z" fill="#ff826e"/>
			</g>
			<g>
				<path d="m18.76 27.46c.69-2.04 1.85-3.87 3.34-5.36l9.9 9.9-9.9 9.9c-2.53-2.54-4.1-6.04-4.1-9.9 0-1.59.27-3.12.76-4.54z" fill="#b4dd7f"/>
			</g>
			<g>
				<path d="m21 5c0 .63-.2 1.22-.53 1.7-.54.79-1.44 1.3-2.47 1.3-1.66 0-3-1.34-3-3 0-.35.06-.68.18-.99.4-1.17 1.51-2.01 2.82-2.01 1.66 0 3 1.34 3 3z" fill="#ff826e"/>
			</g>
			<g>
				<path d="m3.64 49.67c-.98-.49-1.64-1.5-1.64-2.67 0-1.66 1.34-3 3-3 .45 0 .89.1 1.27.29 1.02.47 1.73 1.5 1.73 2.71 0 1.66-1.34 3-3 3-.49 0-.95-.12-1.36-.33z" fill="#ff826e"/>
			</g>
			<g>
				<path d="m46 56c1.66 0 3 1.34 3 3 0 .35-.06.68-.18.99-.4 1.17-1.51 2.01-2.82 2.01-1.66 0-3-1.34-3-3 0-.63.2-1.22.53-1.7.54-.79 1.44-1.3 2.47-1.3z" fill="#ff826e"/>
			</g>
			<g>
				<path d="m60.36 14.33c.98.49 1.64 1.5 1.64 2.67 0 1.66-1.34 3-3 3-.45 0-.89-.1-1.27-.29-1.02-.47-1.73-1.5-1.73-2.71 0-1.66 1.34-3 3-3 .49 0 .95.12 1.36.33z" fill="#ff826e"/>
			</g>
			<g>
				<path d="m12 46h10v8h-10z" fill="#ffeaa7"/>
			</g>
			<g>
				<path d="m10 12h10v8h-10z" fill="#ffeaa7"/>
			</g>
			<g>
				<path d="m42 11h10v8h-10z" fill="#ffeaa7"/>
			</g>
			<g>
				<path d="m44 44h10v8h-10z" fill="#ffeaa7"/>
			</g>
		</g>
		<g>
			<path d="m58.183 20.915c.264.055.537.085.817.085 2.206 0 4-1.794 4-4 0-1.229-.569-2.316-1.443-3.05 1.966-5.231 1.904-9.128-.237-11.269-4.384-4.386-16.032.075-29.333 10.872-3.503-2.831-6.935-5.255-10.229-7.23.147-.416.242-.857.242-1.323 0-2.206-1.794-4-4-4-1.365 0-2.57.689-3.292 1.736-5.633-2.274-9.783-2.3-12.028-.055-4.331 4.333-.052 15.8 10.88 29.318-3.063 3.789-5.686 7.541-7.742 11.086-.265-.055-.538-.085-.818-.085-2.206 0-4 1.794-4 4 0 1.229.569 2.316 1.443 3.05-1.966 5.231-1.904 9.128.237 11.269 1.128 1.128 2.736 1.671 4.731 1.67 5.755 0 14.722-4.531 24.597-12.546 3.504 2.833 6.938 5.257 10.233 7.233-.146.417-.241.858-.241 1.324 0 2.206 1.794 4 4 4 1.365 0 2.57-.69 3.292-1.736 2.838 1.146 5.303 1.726 7.333 1.726 1.999 0 3.581-.556 4.694-1.67 4.332-4.333.052-15.801-10.879-29.318 3.063-3.79 5.687-7.542 7.743-11.087zm.817-1.915c-1.103 0-2-.897-2-2s.897-2 2-2 2 .897 2 2-.897 2-2 2zm.905-14.905c1.506 1.506 1.433 4.686-.153 8.981-.244-.047-.494-.076-.752-.076-2.206 0-4 1.794-4 4 0 1.206.548 2.277 1.395 3.011-2.42 4.155-5.642 8.608-9.45 13.068.026-.358.055-.715.055-1.079 0-8.271-6.729-15-15-15-.368 0-.729.029-1.09.055 14.216-12.162 25.74-16.214 28.995-12.96zm-27.905 40.905c-3.225 0-6.173-1.187-8.447-3.139l8.861-8.861h12.535c-.514 6.701-6.119 12-12.949 12zm-9.861-21.447 8.447 8.447-8.447 8.447c-1.952-2.274-3.139-5.222-3.139-8.447s1.187-6.173 3.139-8.447zm9.861-4.553c6.83 0 12.435 5.299 12.949 12h-12.535l-8.861-8.861c2.274-1.952 5.222-3.139 8.447-3.139zm-14-16c1.103 0 2 .897 2 2s-.897 2-2 2-2-.897-2-2 .897-2 2-2zm-13.905 1.095c1.62-1.621 5.146-1.413 9.942.538-.011.123-.037.241-.037.367 0 2.206 1.794 4 4 4 1.015 0 1.933-.392 2.639-1.017 3.142 1.877 6.421 4.185 9.772 6.873-1.155.972-2.32 1.986-3.493 3.049-4.184 1.514-7.499 4.83-9.013 9.014-1.055 1.164-2.067 2.333-3.046 3.501-9.603-11.981-14.13-22.958-10.764-26.325zm.905 40.905c1.103 0 2 .897 2 2s-.897 2-2 2-2-.897-2-2 .897-2 2-2zm-.905 14.905c-1.506-1.506-1.433-4.686.153-8.981.244.047.494.076.752.076 2.206 0 4-1.794 4-4 0-1.206-.548-2.277-1.395-3.011 2.42-4.154 5.641-8.608 9.45-13.068-.026.358-.055.715-.055 1.079 0 8.271 6.729 15 15 15 .368 0 .729-.029 1.091-.055-3.565 3.051-6.952 5.574-10.091 7.616v-9.561h-12v10h11.339c-9.052 5.758-15.861 7.288-18.244 4.905zm16.905-12.905v6h-8v-6zm25 14c-1.103 0-2-.897-2-2s.897-2 2-2 2 .897 2 2-.897 2-2 2zm13.905-1.095c-1.621 1.619-5.146 1.411-9.942-.538.011-.123.037-.241.037-.367 0-2.206-1.794-4-4-4-1.015 0-1.933.392-2.639 1.017-3.143-1.878-6.423-4.187-9.776-6.876 1.156-.973 2.321-1.982 3.495-3.046 4.185-1.514 7.502-4.831 9.015-9.017 1.055-1.164 2.066-2.332 3.045-3.499 9.604 11.982 14.132 22.959 10.765 26.326z"/>
			<path d="m21 11h-12v10h12zm-2 8h-8v-6h8z"/>
			<path d="m13 15h4v2h-4z"/>
			<path d="m53 10h-12v10h12zm-2 8h-8v-6h8z"/>
			<path d="m45 14h4v2h-4z"/>
			<path d="m15 49h4v2h-4z"/>
			<path d="m43 53h12v-10h-12zm2-8h8v6h-8z"/>
			<path d="m47 47h4v2h-4z"/>
			<path d="m35 25h2v2h-2z"/>
			<path d="m31 25h2v2h-2z"/>
			<path d="m39 25h2v2h-2z"/>
			<path d="m21 31h2v2h-2z"/>
			<path d="m25 31h2v2h-2z"/>
			<path d="m31 37h2v2h-2z"/>
			<path d="m39 37h2v2h-2z"/>
			<path d="m35 37h2v2h-2z"/>
		</g>
	</symbol>
	<symbol id="analysis" viewBox="0 0 512 512">
		<title>analysis</title>
		<path d="m324.17993 328.16992a136.077 136.077 0 0 1 -164.17993 21.63013l68.01-117.80005z" fill="#8acce7"/>
		<path d="m352 160h-136l-68.01 117.80005a136.00965 136.00965 0 1 1 204.01-117.80005z" fill="#e44042"/>
		<path d="m352 160h-136l-68.01-117.8a136.036 136.036 0 0 1 204.01 117.8z" fill="#a2c32a"/>
		<path d="m392 199.83008a135.57224 135.57224 0 0 1 -39.83008 96.16992l-96.16992-96.16992z" fill="#eedc9a"/>
		<path d="m48 488h144a24 24 0 0 0 24-24v-216l-48-48h-120a24 24 0 0 0 -24 24v240a24 24 0 0 0 24 24z" fill="#eedc9a"/>
		<g fill="#eebe33">
			<path d="m168 200v48h48z"/>
			<path d="m48 224h32v16h-32z"/>
			<path d="m80 272h80v16h-80z"/>
			<path d="m176 272h16v16h-16z"/>
			<path d="m160 336h32v16h-32z"/>
			<path d="m48 336h96v16h-96z"/>
			<path d="m128 304h64v16h-64z"/>
			<path d="m48 304h64v16h-64z"/>
			<path d="m48 368h48v16h-48z"/>
			<path d="m112 368h80v16h-80z"/>
			<path d="m48 400h80v16h-80z"/>
			<path d="m144.798 400h31.202v16h-31.202z"/>
			<path d="m152.798 432h31.202v16h-31.202z"/>
		</g>
		<path d="m440 392h-144a8.00235 8.00235 0 0 1 -5.65723-2.34277l-48-48 11.31446-11.31446 45.65625 45.65723h140.68652z" fill="#e44042"/>
		<rect fill="#8acce7" height="80" rx="24" width="128" x="304" y="408"/>
		<path d="m336 424h48v16h-48z" fill="#379ec3"/>
		<path d="m400 424h16v16h-16z" fill="#379ec3"/>
		<path d="m320 456h16v16h-16z" fill="#379ec3"/>
		<path d="m352 456h48v16h-48z" fill="#379ec3"/>
		<rect fill="#2d80b3" height="80" rx="24" width="112" x="376" y="72"/>
		<path d="m408 88h32v16h-32z" fill="#396795"/>
		<path d="m456 88h16v16h-16z" fill="#396795"/>
		<path d="m392 120h16v16h-16z" fill="#396795"/>
		<path d="m424 120h32v16h-32z" fill="#396795"/>
		<path d="m333.65723 221.65723-11.31446-11.31446 40-40a8.00235 8.00235 0 0 1 5.65723-2.34277h128v16h-124.68652z" fill="#e44042"/>
	</symbol>
</svg>